<svg width="18" height="18" viewBox="0 0 18 18" fill="none" xmlns="http://www.w3.org/2000/svg">
<path fill-rule="evenodd" clip-rule="evenodd" d="M16.795 5.031C16.7427 3.9985 16.2962 3.02545 15.5474 2.3126C14.7986 1.59975 13.8048 1.2015 12.771 1.2H5.242L5.032 1.205C3.99932 1.25702 3.02602 1.70349 2.31296 2.45228C1.5999 3.20106 1.20151 4.19501 1.2 5.229V12.758L1.205 12.968C1.25702 14.0007 1.70349 14.974 2.45228 15.687C3.20106 16.4001 4.19501 16.7985 5.229 16.8H12.758L12.968 16.795C14.0007 16.743 14.974 16.2965 15.687 15.5477C16.4001 14.7989 16.7985 13.805 16.8 12.771V5.242L16.795 5.032V5.031ZM17.995 4.99C17.932 3.64622 17.3542 2.37825 16.3813 1.44914C15.4085 0.520027 14.1153 0.00109571 12.77 0H5.23L4.99 0.005C3.64622 0.067958 2.37825 0.64581 1.44914 1.61868C0.520027 2.59154 0.00109571 3.88474 0 5.23V12.772L0.005 13.012C0.0684564 14.3554 0.646526 15.6229 1.61934 16.5516C2.59215 17.4803 3.88507 17.9989 5.23 18H12.772L13.012 17.995C14.3554 17.9315 15.6229 17.3535 16.5516 16.3807C17.4803 15.4078 17.9989 14.1149 18 12.77V5.23L17.995 4.99ZM9 5.6C8.09859 5.60106 7.2344 5.95961 6.59701 6.59701C5.95961 7.2344 5.60106 8.09859 5.6 9C5.6 10.874 7.126 12.4 9 12.4C10.874 12.4 12.4 10.874 12.4 9C12.4 7.126 10.874 5.6 9 5.6ZM4.4 9C4.4 6.463 6.463 4.4 9 4.4C11.537 4.4 13.6 6.463 13.6 9C13.6 11.537 11.537 13.6 9 13.6C7.78041 13.5987 6.61115 13.1136 5.74877 12.2512C4.88639 11.3888 4.40132 10.2196 4.4 9ZM14.5 3.75C14.5 3.94891 14.421 4.13968 14.2803 4.28033C14.1397 4.42098 13.9489 4.5 13.75 4.5C13.5511 4.5 13.3603 4.42098 13.2197 4.28033C13.079 4.13968 13 3.94891 13 3.75C13 3.55109 13.079 3.36032 13.2197 3.21967C13.3603 3.07902 13.5511 3 13.75 3C13.9489 3 14.1397 3.07902 14.2803 3.21967C14.421 3.36032 14.5 3.55109 14.5 3.75Z" fill="#FAFAFA"/>
</svg>
